<?xml version="1.0" encoding="iso-8859-1"?>
<!-- Generator: Adobe Illustrator 18.0.0, SVG Export Plug-In . SVG Version: 6.00 Build 0)  -->
<!DOCTYPE svg PUBLIC "-//W3C//DTD SVG 1.1//EN" "http://www.w3.org/Graphics/SVG/1.1/DTD/svg11.dtd">
<svg version="1.1" id="Capa_1" xmlns="http://www.w3.org/2000/svg" xmlns:xlink="http://www.w3.org/1999/xlink" x="0px" y="0px"
	 viewBox="0 0 60 60" style="enable-background:new 0 0 60 60;" xml:space="preserve">
<g>
	<path d="M53,41c0-3.859-3.14-7-7-7s-7,3.141-7,7v1h-4v18h22V42h-4V41z M41,41c0-2.757,2.243-5,5-5s5,2.243,5,5v1H41V41z M55,44v14
		H37V44h2h14H55z"/>
	<path d="M45,54.858V56c0,0.553,0.448,1,1,1s1-0.447,1-1v-1.142c1.72-0.447,3-1.999,3-3.858c0-2.206-1.794-4-4-4s-4,1.794-4,4
		C42,52.859,43.28,54.411,45,54.858z M46,49c1.103,0,2,0.897,2,2s-0.897,2-2,2s-2-0.897-2-2S44.897,49,46,49z"/>
	<path d="M0.835,21C0.314,21.74,0,22.635,0,23.608v11.783C0,36.365,0.314,37.26,0.835,38h35.626c1.277-4.052,5.07-7,9.539-7
		s8.261,2.948,9.539,7h3.626C59.686,37.26,60,36.365,60,35.392V23.608c0-0.974-0.314-1.868-0.835-2.608H0.835z M10.5,34
		C8.019,34,6,31.981,6,29.5S8.019,25,10.5,25s4.5,2.019,4.5,4.5S12.981,34,10.5,34z M34,29c-0.552,0-1-0.448-1-1s0.448-1,1-1
		s1,0.448,1,1S34.552,29,34,29z M38,29c-0.552,0-1-0.448-1-1s0.448-1,1-1s1,0.448,1,1S38.552,29,38,29z M42,29c-0.552,0-1-0.448-1-1
		s0.448-1,1-1s1,0.448,1,1S42.552,29,42,29z M46,29c-0.552,0-1-0.448-1-1s0.448-1,1-1s1,0.448,1,1S46.552,29,46,29z M50,29
		c-0.552,0-1-0.448-1-1s0.448-1,1-1s1,0.448,1,1S50.552,29,50,29z"/>
	<path d="M55.392,0H4.608C2.067,0,0,2.067,0,4.608v11.783C0,17.365,0.314,18.26,0.835,19h58.329C59.686,18.26,60,17.365,60,16.392
		V4.608C60,2.067,57.933,0,55.392,0z M10.5,15C8.019,15,6,12.981,6,10.5S8.019,6,10.5,6S15,8.019,15,10.5S12.981,15,10.5,15z M34,10
		c-0.552,0-1-0.448-1-1s0.448-1,1-1s1,0.448,1,1S34.552,10,34,10z M36,13c-0.552,0-1-0.448-1-1s0.448-1,1-1s1,0.448,1,1
		S36.552,13,36,13z M38,10c-0.552,0-1-0.448-1-1s0.448-1,1-1s1,0.448,1,1S38.552,10,38,10z M40,13c-0.552,0-1-0.448-1-1s0.448-1,1-1
		s1,0.448,1,1S40.552,13,40,13z M42,10c-0.552,0-1-0.448-1-1s0.448-1,1-1s1,0.448,1,1S42.552,10,42,10z M44,13c-0.552,0-1-0.448-1-1
		s0.448-1,1-1s1,0.448,1,1S44.552,13,44,13z M46,10c-0.552,0-1-0.448-1-1s0.448-1,1-1s1,0.448,1,1S46.552,10,46,10z M48,13
		c-0.552,0-1-0.448-1-1s0.448-1,1-1s1,0.448,1,1S48.552,13,48,13z M50,10c-0.552,0-1-0.448-1-1s0.448-1,1-1s1,0.448,1,1
		S50.552,10,50,10z M52,13c-0.552,0-1-0.448-1-1s0.448-1,1-1s1,0.448,1,1S52.552,13,52,13z"/>
	<path d="M0,42.608v11.783C0,56.933,2.067,59,4.608,59H32V40H0.835C0.314,40.74,0,41.635,0,42.608z M10.5,44
		c2.481,0,4.5,2.019,4.5,4.5S12.981,53,10.5,53S6,50.981,6,48.5S8.019,44,10.5,44z"/>
</g>
<g>
</g>
<g>
</g>
<g>
</g>
<g>
</g>
<g>
</g>
<g>
</g>
<g>
</g>
<g>
</g>
<g>
</g>
<g>
</g>
<g>
</g>
<g>
</g>
<g>
</g>
<g>
</g>
<g>
</g>
</svg>
